<svg xmlns="http://www.w3.org/2000/svg" viewBox="0 0 64 64">
    <title>Wagglesworth Estate — Silver Rose</title>
    <rect width="64" height="64" rx="12" fill="#5B2C83"/>
    <circle cx="32" cy="32" r="6" fill="#FFF8E8"/>
    <g fill="#A7A9AC">
        <path d="M32 26 C24 20, 18 22, 16 30 C18 24, 26 22, 32 26 Z"/>
        <path d="M38 26 C46 20, 52 22, 54 30 C52 24, 44 22, 38 26 Z"/>
        <path d="M26 32 C20 24, 22 18, 30 16 C24 18, 22 26, 26 32 Z"/>
        <path d="M26 38 C20 46, 22 52, 30 54 C24 52, 22 44, 26 38 Z"/>
        <path d="M38 38 C46 46, 52 52, 54 54 C52 48, 44 42, 38 38 Z"/>
        <path d="M38 32 C46 26, 52 26, 54 34 C50 28, 42 28, 38 32 Z"/>
        <path d="M32 38 C24 44, 22 50, 30 54 C26 48, 26 42, 32 38 Z"/>
    </g>
</svg>
